<?xml version="1.0" ?><svg style="enable-background:new 0 0 50 50;" version="1.1" viewBox="0 0 50 50" xml:space="preserve" xmlns="http://www.w3.org/2000/svg" xmlns:xlink="http://www.w3.org/1999/xlink"><g id="Layer_1"><path d="M15,49h6h2h10h2h14V5H35V1H21v12h-6V1H1v48h12H15z M47,7v40H35V7H47z M23,3h10v2v42H23V13V3z M21,15v32h-6V15H21z M3,47V3   h10v10v34H3z"/><rect height="2" width="6" x="5" y="43"/><rect height="2" width="6" x="5" y="38"/><rect height="2" width="6" x="5" y="33"/><rect height="2" width="8" x="37" y="43"/><rect height="2" width="8" x="37" y="38"/><rect height="2" width="8" x="37" y="33"/><rect height="2" width="6" x="25" y="31"/><rect height="2" width="6" x="25" y="35"/><rect height="2" width="6" x="25" y="6"/><rect height="2" width="6" x="25" y="10"/><rect height="2" width="6" x="25" y="39"/><rect height="2" width="6" x="25" y="43"/><rect height="2" width="2" x="7" y="7"/><rect height="2" width="2" x="40" y="11"/></g><g/></svg>